HIERARCHY
ROOT Hips
{
    OFFSET 0.000000 0.000000 0.000000
    CHANNELS 6 Xposition Yposition Zposition Zrotation Xrotation Yrotation
    JOINT Spine
    {
        OFFSET -0.000000 14.517291 0.000000
        CHANNELS 3 Zrotation Xrotation Yrotation
        JOINT Spine1
        {
            OFFSET -0.000000 37.558300 0.000000
            CHANNELS 3 Zrotation Xrotation Yrotation
            JOINT Neck
            {
                OFFSET -0.000000 37.404057 3.400369
                CHANNELS 3 Zrotation Xrotation Yrotation
                JOINT Head
                {
                    OFFSET -0.000000 24.785618 -3.540803
                    CHANNELS 3 Zrotation Xrotation Yrotation
                    End Site
                    {
                        OFFSET -0.000000 35.408028 0.000000
                    }
                }
            }
            JOINT LeftShoulder
            {
                OFFSET 6.992933 33.973492 -0.192664
                CHANNELS 3 Zrotation Xrotation Yrotation
                JOINT LeftArm
                {
                    OFFSET 21.527611 0.000000 0.000000
                    CHANNELS 3 Zrotation Xrotation Yrotation
                    JOINT LeftForeArm
                    {
                        OFFSET 56.353916 0.000000 0.000000
                        CHANNELS 3 Zrotation Xrotation Yrotation
                        JOINT LeftHand
                        {
                            OFFSET 47.774071 0.000000 0.000000
                            CHANNELS 3 Zrotation Xrotation Yrotation
                            End Site
                            {
                                OFFSET 26.556021 0.000000 0.000000
                            }
                        }
                    }
                }
            }
            JOINT RightShoulder
            {
                OFFSET -7.065357 33.973492 -0.192664
                CHANNELS 3 Zrotation Xrotation Yrotation
                JOINT RightArm
                {
                    OFFSET -21.527611 0.000000 0.000000
                    CHANNELS 3 Zrotation Xrotation Yrotation
                    JOINT RightForeArm
                    {
                        OFFSET -56.353916 0.000000 0.000000
                        CHANNELS 3 Zrotation Xrotation Yrotation
                        JOINT RightHand
                        {
                            OFFSET -47.774071 0.000000 0.000000
                            CHANNELS 3 Zrotation Xrotation Yrotation
                            End Site
                            {
                                OFFSET -26.556021 0.000000 0.000000
                            }
                        }
                    }
                }
            }
        }
    }
    JOINT LeftUpLeg
    {
        OFFSET 17.704014 0.000000 0.000000
        CHANNELS 3 Zrotation Xrotation Yrotation
        JOINT LeftLeg
        {
            OFFSET -0.000000 -81.181816 0.000000
            CHANNELS 3 Zrotation Xrotation Yrotation
            JOINT LeftFoot
            {
                OFFSET -0.000000 -62.821102 0.000000
                CHANNELS 3 Zrotation Xrotation Yrotation
                JOINT LeftToeBase
                {
                    OFFSET -0.000000 -11.507608 26.556021
                    CHANNELS 3 Zrotation Xrotation Yrotation
                    End Site
                    {
                        OFFSET -0.000000 0.000000 7.081605
                    }
                }
            }
        }
    }
    JOINT RightUpLeg
    {
        OFFSET -17.704014 0.000000 0.000000
        CHANNELS 3 Zrotation Xrotation Yrotation
        JOINT RightLeg
        {
            OFFSET -0.000000 -81.181816 0.000000
            CHANNELS 3 Zrotation Xrotation Yrotation
            JOINT RightFoot
            {
                OFFSET -0.000000 -62.821102 0.000000
                CHANNELS 3 Zrotation Xrotation Yrotation
                JOINT RightToeBase
                {
                    OFFSET -0.000000 -11.507608 26.556021
                    CHANNELS 3 Zrotation Xrotation Yrotation
                    End Site
                    {
                        OFFSET -0.000000 0.000000 7.081605
                    }
                }
            }
        }
    }
}
MOTION
Frames:    10
Frame Time:    0.008333
-7.330484    147.171921    -105.654930    1.788478    -4.342373    10.297640    -1.205381    0.030721    -5.808189    -0.001155    3.644089    -1.936614    4.473300    -3.615632    -3.610960    3.497066    4.639584    -4.209462    2.880782    10.630818    -19.719322    -37.141808    15.810978    -39.459126    18.804977    -52.548901    -96.622795    -17.439953    -34.658127    -22.131853    -2.265158    9.372735    -3.594352    28.479261    13.552665    69.829330    6.287820    17.504551    42.693996    -30.378023    5.733994    34.154278    9.845930    2.756936    10.862889    -27.153925    45.403408    -3.542115    14.777218    -38.089108    60.669308    0.000000    0.000000    0.000000    -15.774763    -32.498486    -6.043317    9.140149    26.922112    -12.760872    2.214144    14.641693    0.263932    0.000000    0.000000    0.000000    
-7.381095    147.163040    -105.679199    1.797210    -4.350358    10.352106    -1.222961    0.031014    -5.794038    0.006259    3.647634    -1.932136    4.435555    -3.609533    -3.638076    3.525031    4.652190    -4.228149    2.871845    10.641022    -19.710382    -37.136883    15.824217    -39.553772    18.831186    -52.551632    -96.575050    -17.413145    -34.655186    -22.135654    -2.280150    9.385813    -3.587741    28.460135    13.554501    69.768921    6.250609    17.463388    42.683163    -30.346119    5.716301    34.155766    9.875067    2.736644    10.828042    -27.172697    45.427307    -3.597811    14.814330    -38.080235    60.688725    0.000000    0.000000    0.000000    -15.788859    -32.489590    -6.058297    9.140902    26.936424    -12.771973    2.218518    14.626892    0.257858    0.000000    0.000000    0.000000    
-7.433428    147.156845    -105.702255    1.804146    -4.359938    10.415792    -1.239700    0.035334    -5.784113    0.024013    3.645164    -1.929418    4.371576    -3.600876    -3.670224    3.585229    4.664979    -4.243956    2.837313    10.626319    -19.721075    -37.156990    15.813361    -39.593605    18.770889    -52.504032    -96.612564    -17.348633    -34.654343    -22.093691    -2.299063    9.409168    -3.580944    28.451288    13.552428    69.711388    6.216805    17.425774    42.658401    -30.334162    5.692210    34.167629    9.908753    2.715552    10.783297    -27.211445    45.442936    -3.590527    14.867306    -38.039112    60.679302    0.000000    0.000000    0.000000    -15.804646    -32.474636    -6.077539    9.149877    26.940413    -12.826161    2.210058    14.615401    0.261823    0.000000    0.000000    0.000000    
-7.486121    147.150925    -105.725739    1.807688    -4.361574    10.472221    -1.253043    0.031248    -5.763278    0.043018    3.646043    -1.923084    4.309893    -3.606516    -3.702369    3.631707    4.694602    -4.262670    2.801948    10.617509    -19.716463    -37.162159    15.818450    -39.655128    18.734121    -52.472038    -96.625282    -17.304468    -34.654484    -22.063597    -2.322836    9.425508    -3.582299    28.446411    13.551739    69.651695    6.181987    17.384678    42.642784    -30.322155    5.666409    34.172649    9.943974    2.690212    10.757483    -27.243248    45.458916    -3.601487    14.907226    -38.011093    60.672951    0.000000    0.000000    0.000000    -15.821026    -32.470810    -6.102498    9.157310    26.946848    -12.829426    2.204552    14.609516    0.256144    0.000000    0.000000    0.000000    
-7.537998    147.150238    -105.739426    1.812358    -4.372298    10.532125    -1.265415    0.021091    -5.741511    0.051595    3.670713    -1.916051    4.264423    -3.608020    -3.737812    3.675128    4.698854    -4.287118    2.781221    10.593058    -19.701315    -37.175091    15.849047    -39.725128    18.733364    -52.456570    -96.609299    -17.259619    -34.654335    -22.004976    -2.326240    9.435170    -3.591539    28.430914    13.554577    69.586128    6.128057    17.338322    42.652039    -30.308779    5.642141    34.175526    9.983254    2.683086    10.715391    -27.286772    45.456894    -3.610556    14.968105    -37.961327    60.661858    0.000000    0.000000    0.000000    -15.831343    -32.452579    -6.130729    9.154879    26.955584    -12.855103    2.199514    14.599674    0.263486    0.000000    0.000000    0.000000    
-7.590434    147.150421    -105.754181    1.819846    -4.387233    10.601367    -1.267730    0.025009    -5.719614    0.034317    3.676498    -1.908244    4.221653    -3.619692    -3.776188    3.745217    4.736159    -4.313872    2.785126    10.576601    -19.707157    -37.191654    15.890559    -39.787384    18.750387    -52.457249    -96.575714    -17.209026    -34.663811    -21.955795    -2.306937    9.438240    -3.598025    28.425169    13.566792    69.497208    6.080551    17.292772    42.655708    -30.318663    5.606724    34.185555    10.014296    2.668126    10.681321    -27.303585    45.476265    -3.627797    15.018430    -37.911350    60.663227    0.000000    0.000000    0.000000    -15.851226    -32.423946    -6.156365    9.163670    26.961794    -12.844076    2.207402    14.577889    0.229444    0.000000    0.000000    0.000000    
-7.651154    147.150253    -105.767754    1.816808    -4.392855    10.672438    -1.264185    0.018941    -5.704250    0.020751    3.678036    -1.902673    4.206144    -3.606760    -3.804667    3.767725    4.735795    -4.337933    2.784271    10.578182    -19.695484    -37.222324    15.848205    -39.862450    18.681896    -52.373428    -96.603241    -17.190876    -34.616463    -21.922781    -2.286366    9.440190    -3.592605    28.423389    13.589416    69.400368    6.012136    17.238697    42.662575    -30.322681    5.570693    34.200924    10.067372    2.643352    10.643711    -27.352591    45.486385    -3.631927    15.071551    -37.859135    60.654366    0.000000    0.000000    0.000000    -15.856519    -32.407734    -6.174194    9.170500    26.967991    -12.870019    2.216609    14.561338    0.193079    0.000000    0.000000    0.000000    
-7.709419    147.151154    -105.780899    1.817202    -4.405360    10.756273    -1.268623    0.017277    -5.682926    0.021914    3.689561    -1.895589    4.190831    -3.598676    -3.838638    3.782836    4.725019    -4.368372    2.787969    10.565259    -19.718267    -37.235481    15.879305    -39.912697    18.691826    -52.374546    -96.575600    -17.160954    -34.625938    -21.890673    -2.277186    9.411396    -3.594674    28.461687    13.611569    69.278572    5.983462    17.206837    42.648022    -30.360098    5.530617    34.222977    10.118419    2.621744    10.594139    -27.393875    45.504284    -3.643168    15.109066    -37.813084    60.623535    0.000000    0.000000    0.000000    -15.869727    -32.376415    -6.235020    9.151744    26.975561    -12.864325    2.242177    14.539561    0.183307    0.000000    0.000000    0.000000    
-7.770803    147.151001    -105.800163    1.814290    -4.412840    10.851047    -1.275518    0.027277    -5.679771    0.039261    3.678866    -1.895104    4.152668    -3.600486    -3.856586    3.809180    4.738643    -4.377991    2.787834    10.576248    -19.716850    -37.240772    15.911748    -39.947388    18.685989    -52.376896    -96.575272    -17.168257    -34.633339    -21.892567    -2.274669    9.429585    -3.614476    28.484295    13.617240    69.217926    5.946249    17.167667    42.603428    -30.366810    5.496214    34.251595    10.167896    2.585504    10.531261    -27.429083    45.526814    -3.652092    15.167214    -37.751366    60.606380    0.000000    0.000000    0.000000    -15.889343    -32.349918    -6.271611    9.164323    26.975643    -12.908324    2.223140    14.529610    0.184626    0.000000    0.000000    0.000000    
-7.831752    147.151611    -105.813255    1.813118    -4.433692    10.944271    -1.282452    0.031569    -5.667636    0.050545    3.704354    -1.891456    4.173376    -3.607731    -3.860365    3.758823    4.725794    -4.390641    2.803505    10.557896    -19.722069    -37.265911    15.926088    -39.990971    18.661913    -52.345470    -96.581955    -17.173208    -34.613403    -21.880119    -2.266248    9.416771    -3.641824    28.504114    13.637013    69.144920    5.909950    17.128359    42.558865    -30.373707    5.461231    34.280212    10.222892    2.567053    10.474510    -27.465853    45.549015    -3.689953    15.234138    -37.691242    60.617214    0.000000    0.000000    0.000000    -15.903506    -32.311729    -6.307956    9.170667    26.986225    -12.908857    2.234760    14.507020    0.128217    0.000000    0.000000    0.000000    
